PathFileType	4	(X/Y/Z)	D:\TRACE\spot_10-12-23\spot_body_motion_3_5-platform.trc
DataRate	CameraRate	NumFrames	NumMarkers	Units	OrigDataRate	OrigDataStartFrame	OrigNumFrames
100.00	100.00	      30	5	mm	100.00	1	      7000
Frame#	Time	Left_Front			Right_Front			Left_Aft			Right_Aft			Post			
		X1	Y1	Z1	X2	Y2	Z2	X3	Y3	Z3	X4	Y4	Z4	X5	Y5	Z5	

1	0.000	-819.91522	123.59947	-602.42706	752.82214	126.95737	-595.61676	-736.40863	-78.90384	517.35742	681.08014	-89.76917	602.44843	-37.54273	905.82782	-784.70465	
2	0.010	-819.92120	123.57625	-602.41504	752.79956	126.95416	-595.65442	-736.42798	-78.87895	517.38568	681.04388	-89.78154	602.42682	-37.32607	905.76025	-784.49524	
3	0.020	-819.91730	123.56770	-602.40546	752.80548	126.95235	-595.63214	-736.42651	-78.88205	517.38068	681.05231	-89.77262	602.43848	-37.65028	905.85260	-784.64447	
4	0.030	-819.89984	123.62778	-602.41998	752.85297	126.98013	-595.62561	-736.42401	-78.84832	517.34601	681.04565	-89.75111	602.42352	-37.37014	905.75055	-784.40991	
5	0.040	-820.04315	123.65626	-602.35339	752.83026	126.98900	-595.65454	-736.39587	-78.84745	517.37476	681.02881	-89.75737	602.42096	-37.60421	905.84216	-784.57550	
6	0.050	-819.91052	123.59911	-602.41846	752.81140	126.96380	-595.66931	-736.40649	-78.83746	517.36407	681.04767	-89.71153	602.40497	-37.41817	905.69067	-784.35590	
7	0.060	-819.90729	123.58094	-602.42224	752.83258	126.96391	-595.67969	-736.37976	-78.89526	517.39307	681.07880	-89.70821	602.41406	-37.41693	905.70398	-784.32910	
8	0.070	-819.90741	123.54308	-602.42377	752.84308	126.97792	-595.61920	-736.40729	-78.84796	517.39758	681.07007	-89.65789	602.40417	-37.43665	905.69482	-784.33270	
9	0.080	-819.89044	123.58573	-602.45135	752.85229	126.97717	-595.64355	-736.41949	-78.85133	517.34521	681.13696	-89.64382	602.43488	-37.34284	905.70001	-784.39178	
10	0.090	-819.89380	123.57782	-602.47461	752.81097	126.95853	-595.63477	-736.42047	-78.85391	517.40369	681.11737	-89.63232	602.40942	-37.32458	905.74762	-784.41132	
11	0.100	-819.90204	123.59819	-602.42755	752.80377	126.97350	-595.66199	-736.37299	-78.86554	517.40588	681.14807	-89.63076	602.45270	-37.30087	905.79285	-784.52533	
12	0.110	-819.94531	123.62056	-602.43604	752.82733	126.95930	-595.61316	-736.38422	-78.90881	517.39557	681.13843	-89.63590	602.45264	-37.28425	905.75580	-784.53815	
13	0.120	-819.93115	123.58537	-602.41583	752.81525	126.91652	-595.62164	-736.39642	-78.87386	517.41663	681.15741	-89.64099	602.48022	-37.34591	905.76202	-784.52142	
14	0.130	-819.88965	123.58310	-602.42792	752.77118	126.93937	-595.63739	-736.41284	-78.88596	517.35437	681.18195	-89.59217	602.52173	-37.34184	905.77344	-784.49268	
15	0.140	-819.90967	123.61665	-602.43292	752.82928	126.92756	-595.66370	-736.39325	-78.86868	517.39209	681.21979	-89.62134	602.53833	-37.34928	905.73846	-784.44208	
16	0.150	-819.91565	123.58836	-602.42218	752.80371	126.93622	-595.64240	-736.40094	-78.85471	517.40265	681.21509	-89.56467	602.58868	-37.37047	905.70770	-784.40082	
17	0.160	-820.08148	123.66932	-602.38458	752.82404	126.94003	-595.65393	-736.38110	-78.87942	517.37372	681.28296	-89.52123	602.63068	-37.43274	905.71667	-784.33881	
18	0.170	-819.94946	123.58571	-602.41321	752.82593	126.94274	-595.64740	-736.40918	-78.89991	517.40247	681.24615	-89.53600	602.62787	-37.46820	905.67743	-784.33600	
19	0.180	-819.90631	123.57023	-602.40637	752.81091	126.94145	-595.64368	-736.42096	-78.86787	517.36261	681.28168	-89.48710	602.74408	-37.43917	905.71680	-784.36145	
20	0.190	-820.03168	123.62881	-602.39819	752.81812	126.98330	-595.63129	-736.45538	-78.84773	517.31946	681.42676	-89.52149	602.95288	-37.36682	905.77771	-784.39307	
21	0.200	-820.07867	123.69216	-602.35797	752.84576	126.93674	-595.62622	-736.37964	-78.83057	517.36780	681.50800	-89.36306	603.02222	-37.29943	905.80371	-784.45178	
22	0.210	-820.06671	123.67147	-602.35016	752.83966	126.97918	-595.61285	-736.37158	-78.85914	517.36560	681.63965	-89.28844	603.20313	-37.33157	905.82495	-784.46613	
23	0.220	-819.93530	123.59538	-602.39032	752.82324	126.94437	-595.66815	-736.40955	-78.83923	517.41144	681.69708	-89.14825	603.17981	-37.32447	905.79572	-784.47357	
24	0.230	-819.88812	123.54367	-602.41809	752.80963	126.94953	-595.63617	-736.40936	-78.89892	517.38483	681.18585	-89.55047	602.40698	-37.36104	905.78680	-784.46576	
25	0.240	-819.90741	123.57790	-602.42157	752.81494	126.94965	-595.65350	-736.41223	-78.86074	517.40607	681.14258	-89.53818	602.40137	-37.32753	905.77130	-784.47504	
26	0.250	-819.90668	123.57252	-602.45697	752.77448	126.96086	-595.66119	-736.43274	-78.85182	517.38342	681.15790	-89.51487	602.39783	-37.35395	905.78375	-784.43390	
27	0.260	-819.88953	123.60167	-602.44385	752.82190	126.96645	-595.68958	-736.38989	-78.82598	517.33344	681.18036	-89.52897	602.39990	-37.35116	905.73828	-784.41815	
28	0.270	-819.92401	123.57540	-602.43439	752.77386	126.96815	-595.65271	-736.45746	-78.87860	517.37134	681.16846	-89.51013	602.44495	-37.41529	905.73938	-784.39777	
29	0.280	-819.90564	123.57245	-602.40521	752.85132	126.93851	-595.63062	-736.40662	-78.85880	517.41449	681.15826	-89.54858	602.37091	-37.41247	905.68567	-784.37878	
30	0.290	-819.90283	123.58823	-602.43298	752.79321	126.97456	-595.64996	-736.42383	-78.92232	517.43317	681.15393	-89.55881	602.38232	-37.39689	905.70068	-784.37927	
